<?xml version="1.0" encoding="utf-8"?>
<!-- Generator: Adobe Illustrator 24.0.0, SVG Export Plug-In . SVG Version: 6.00 Build 0)  -->
<svg version="1.1" id="Layer_1" xmlns="http://www.w3.org/2000/svg" xmlns:xlink="http://www.w3.org/1999/xlink" x="0px" y="0px"
	 viewBox="0 0 50 50" style="enable-background:new 0 0 50 50;" xml:space="preserve">
<style type="text/css">
	.st0{fill:#282828;}
	.st1{fill:#FFFFFF;stroke:#FFFFFF;stroke-miterlimit:10;}
</style>
<path class="st0" d="M9-2"/>
<circle cx="25" cy="25" r="23.8"/>
<g>
	<g>
		<path class="st1" d="M21.2,12.4C21.2,12.4,21.2,12.4,21.2,12.4c0,0.1-0.1,0.2-0.1,0.3C21.1,12.5,21.2,12.4,21.2,12.4z"/>
		<path class="st1" d="M20.5,31.5c-0.5-0.5-1,0.4-1,0.4c-0.2,0.4-0.4,0.8-0.6,1.2c-0.1,0.2-0.2,0.4-0.3,0.7
			c-0.1,0.1-0.1,0.2-0.2,0.3c-0.1,0.2-0.3,0.4-0.4,0.6c-0.1,0.2-0.3,0.4-0.4,0.6c-0.7,1.1-4.8,4-3.2-3.5c0.1-0.7,0.3-1.4,0.5-2.1
			c0.3-1.1,0.7-2.2,1.1-3.3c0.2-0.6,1.7-4.6,1.9-5.2c0.2-0.5,0.4-1,0.6-1.5c0.5-0.1,1.1-0.2,1.6-0.3c0.6-0.1,1.2-0.2,1.8-0.4
			l3.8-0.6c12.9-2,17.1-0.1,17.4,3c0,0.1,0,0.2,0,0.3c0,0,0,0.1,0,0.1c0,0.3,0.4,0.7,1.2,0.5c0.3-0.1,0.6-0.3,0.9-0.5
			c1.3-1.1,1.3-5.6-5.1-6.9c-0.5-0.1-1-0.2-1.5-0.2c-0.1,0-0.1,0-0.2,0c-0.1,0-0.2,0-0.4,0c-0.4,0-0.8,0-1.2-0.1c-0.2,0-0.4,0-0.6,0
			c-0.4,0-0.8,0-1.2,0c-0.3,0-0.5,0-0.8,0c-0.3,0-0.6,0-0.9,0.1c-0.6,0-1.1,0.1-1.7,0.1c-0.7,0.1-1.5,0.2-2.2,0.3
			c-0.2,0-0.4,0.1-0.5,0.1c-0.4,0.1-0.9,0.1-1.3,0.2c-0.6,0.1-1.2,0.2-1.8,0.3c0,0-2.4,0.5-3.5,0.7c-0.8,0.2-1.7,0.3-2.5,0.5
			c0.1-0.2,0.2-0.4,0.3-0.7c0.2-0.6,0.4-1.1,0.6-1.7c0.2-0.6,0.4-1.1,0.6-1.7c0.1-0.2,0.1-0.4,0.2-0.5c0-0.2,0.1-0.3,0.1-0.5
			c0-0.1,0-0.1,0-0.2c0,0,0-0.1,0-0.1c0-0.1,0-0.3,0-0.3c0-0.1-0.1-0.2-0.1-0.3c-0.1-0.1-0.2-0.1-0.3-0.1c0,0-0.1,0-0.1,0
			c-0.3,0-0.6,0.2-0.8,0.4c-0.2,0.2-0.3,0.4-0.4,0.6c0,0.1-0.1,0.1-0.1,0.2c0,0,0,0.1,0,0.1c0,0.1-0.1,0.1-0.1,0.2
			c-0.1,0.2-0.1,0.3-0.2,0.5c-0.1,0.3-0.2,0.6-0.4,0.8c-0.2,0.6-0.5,1.1-0.7,1.7c-0.2,0.6-0.5,1.1-0.7,1.7c0,0.1-0.1,0.2-0.1,0.2
			c-0.3,0.1-0.7,0.1-1,0.1c-0.3,0-0.5,0.1-0.8,0.1c-0.3,0-0.6,0.1-1,0.1c-1.1,0.1-2.1,0-3.2-0.2c-0.7-0.2-1.4-0.4-2-0.9
			c-0.1-0.1-0.2-0.2-0.2-0.3c-0.1-0.1-0.2-0.3-0.2-0.5c-0.1-0.2-0.3-0.3-0.5-0.3c-0.4,0-0.9,0.2-1.2,0.4c-0.5,0.4-1.2,1.3-0.9,2.1
			c0.1,0.2,0.5,0.9,1.2,1.3c0.2,0.1,0.4,0.2,0.6,0.3c0.4,0.2,0.8,0.3,1.2,0.4c0.5,0.1,1,0.2,1.5,0.3c0.9,0.1,1.9,0.1,2.8,0
			c0.4,0,0.7-0.1,1.1-0.1c0.5,0,1.1-0.1,1.6-0.2c0,0.1-0.1,0.2-0.1,0.3c-0.3,0.6-3.3,8.4-4.5,12.4c-1.2,3.9-0.2,5.5,0.1,5.9
			c1.2,1.6,4.1,1.7,6.4-0.7C19.7,36.4,21.4,32.4,20.5,31.5z M19.6,11.8C19.6,11.8,19.6,11.9,19.6,11.8L19.6,11.8
			C19.6,11.9,19.6,11.8,19.6,11.8z"/>
	</g>
</g>
</svg>
