<?xml version="1.0" encoding="utf-8"?>
<!-- Generator: Adobe Illustrator 15.0.0, SVG Export Plug-In . SVG Version: 6.00 Build 0)  -->
<!DOCTYPE svg PUBLIC "-//W3C//DTD SVG 1.1//EN" "http://www.w3.org/Graphics/SVG/1.1/DTD/svg11.dtd">
<svg version="1.1" id="Layer_1" xmlns="http://www.w3.org/2000/svg" xmlns:xlink="http://www.w3.org/1999/xlink" x="0px" y="0px"
	 width="240px" height="80px" viewBox="0 0 240 80" enable-background="new 0 0 240 80" xml:space="preserve">
<g>
	<g>
		<path fill="#333333" d="M69.423,48.243c-0.324,0.938-0.651,1.88-0.978,2.821c-0.325,0.943-0.63,1.859-0.911,2.748h-6.016
			c0.968-2.771,1.886-5.332,2.755-7.687c0.87-2.353,1.721-4.565,2.552-6.647c0.833-2.079,1.65-4.053,2.458-5.923
			c0.808-1.868,1.646-3.694,2.515-5.478h5.492c0.846,1.782,1.678,3.609,2.499,5.478c0.82,1.87,1.649,3.844,2.482,5.923
			c0.833,2.082,1.684,4.296,2.555,6.647c0.87,2.354,1.79,4.915,2.761,7.687h-6.204c-0.288-0.895-0.594-1.812-0.925-2.754
			c-0.33-0.94-0.657-1.882-0.982-2.815h-6.96l1.179-4.604h4.406c-0.395-1.117-0.775-2.183-1.145-3.199
			c-0.368-1.017-0.721-1.947-1.052-2.791c-0.333-0.842-0.624-1.585-0.875-2.229c-0.251-0.641-0.452-1.145-0.606-1.512
			c-0.13,0.374-0.319,0.884-0.568,1.527c-0.249,0.642-0.533,1.386-0.85,2.228C72.687,38.508,69.423,48.243,69.423,48.243z"/>
		<path fill="#333333" d="M89.185,44.048c0-1.412,0.229-2.742,0.687-3.992c0.458-1.249,1.12-2.34,1.986-3.269
			c0.866-0.928,1.919-1.665,3.157-2.209c1.237-0.545,2.649-0.816,4.233-0.816c1.04,0,1.992,0.093,2.859,0.277
			c0.867,0.187,1.709,0.452,2.525,0.798l-1.15,4.42c-0.521-0.197-1.091-0.372-1.71-0.52c-0.619-0.148-1.312-0.224-2.079-0.224
			c-1.635,0-2.854,0.508-3.657,1.523c-0.805,1.015-1.207,2.351-1.207,4.01c0,1.758,0.376,3.119,1.133,4.084
			c0.754,0.967,2.072,1.45,3.954,1.45c0.668,0,1.387-0.062,2.155-0.187c0.767-0.125,1.472-0.321,2.116-0.597l0.779,4.532
			c-0.645,0.271-1.448,0.507-2.414,0.705c-0.966,0.197-2.03,0.297-3.193,0.297c-1.782,0-3.317-0.268-4.605-0.797
			c-1.286-0.534-2.345-1.258-3.175-2.174c-0.829-0.915-1.437-1.998-1.82-3.25C89.376,46.864,89.185,45.51,89.185,44.048z"/>
		<path fill="#333333" d="M108.68,53.812V25.889l5.534-0.892v9.358c0.371-0.124,0.848-0.241,1.429-0.354
			c0.583-0.11,1.146-0.167,1.691-0.167c1.583,0,2.901,0.217,3.952,0.65c1.053,0.433,1.896,1.047,2.526,1.838
			c0.631,0.793,1.076,1.733,1.336,2.822c0.261,1.091,0.391,2.304,0.391,3.64v11.028h-5.532V43.454c0-1.785-0.229-3.047-0.687-3.787
			c-0.46-0.744-1.309-1.116-2.546-1.116c-0.494,0-0.958,0.045-1.392,0.13c-0.433,0.087-0.823,0.182-1.169,0.279v14.854h-5.533
			V53.812z"/>
		<path fill="#333333" d="M136.605,28.637c0,1.016-0.33,1.814-0.984,2.396c-0.656,0.582-1.43,0.874-2.32,0.874
			c-0.892,0-1.667-0.292-2.32-0.874c-0.656-0.58-0.983-1.38-0.983-2.396c0-1.015,0.327-1.812,0.983-2.396
			c0.653-0.581,1.43-0.87,2.32-0.87s1.664,0.289,2.32,0.87C136.275,26.823,136.605,27.622,136.605,28.637z M136.085,53.812h-5.532
			V34.28h5.532V53.812z"/>
		<path fill="#333333" d="M149.083,54.188c-1.608-0.025-2.916-0.199-3.917-0.521c-1.003-0.321-1.797-0.773-2.378-1.354
			c-0.582-0.582-0.979-1.287-1.188-2.119c-0.211-0.827-0.315-1.763-0.315-2.804V25.889l5.532-0.892v21.278
			c0,0.496,0.037,0.94,0.113,1.337c0.072,0.396,0.215,0.729,0.426,1.004c0.211,0.271,0.515,0.493,0.909,0.667
			c0.396,0.173,0.929,0.283,1.598,0.335L149.083,54.188z"/>
		<path fill="#333333" d="M160.818,54.188c-1.61-0.025-2.915-0.199-3.918-0.521c-1.004-0.321-1.795-0.773-2.377-1.354
			c-0.582-0.582-0.979-1.287-1.188-2.119c-0.211-0.827-0.316-1.763-0.316-2.804V25.889l5.532-0.892v21.278
			c0,0.496,0.038,0.94,0.113,1.337c0.074,0.396,0.217,0.729,0.426,1.004c0.21,0.271,0.515,0.493,0.911,0.667
			c0.395,0.173,0.928,0.283,1.595,0.335L160.818,54.188z"/>
		<path fill="#333333" d="M170.807,28.637c0,1.016-0.328,1.814-0.982,2.396c-0.657,0.582-1.43,0.874-2.322,0.874
			c-0.891,0-1.666-0.292-2.32-0.874c-0.658-0.58-0.982-1.38-0.982-2.396c0-1.015,0.324-1.812,0.982-2.396
			c0.654-0.581,1.431-0.87,2.32-0.87c0.893,0,1.665,0.289,2.322,0.87C170.479,26.823,170.807,27.622,170.807,28.637z
			 M170.287,53.812h-5.534V34.28h5.534V53.812z"/>
		<path fill="#333333" d="M182.503,33.762c1.636,0,2.996,0.186,4.085,0.558c1.09,0.371,1.963,0.903,2.618,1.597
			c0.657,0.694,1.121,1.535,1.394,2.525c0.271,0.989,0.407,2.094,0.407,3.305v11.513c-0.791,0.175-1.894,0.376-3.303,0.612
			c-1.412,0.234-3.121,0.354-5.126,0.354c-1.264,0-2.408-0.111-3.436-0.335c-1.026-0.223-1.912-0.586-2.653-1.095
			c-0.744-0.508-1.314-1.171-1.71-1.986c-0.396-0.817-0.594-1.82-0.594-3.01c0-1.138,0.229-2.102,0.688-2.896
			c0.458-0.792,1.068-1.425,1.839-1.896c0.765-0.469,1.646-0.81,2.635-1.021c0.99-0.209,2.02-0.318,3.084-0.318
			c0.716,0,1.354,0.034,1.911,0.096c0.559,0.062,1.01,0.144,1.355,0.24v-0.52c0-0.941-0.284-1.695-0.854-2.267
			c-0.57-0.569-1.561-0.854-2.973-0.854c-0.94,0-1.87,0.067-2.784,0.203c-0.917,0.137-1.708,0.328-2.376,0.576l-0.707-4.456
			c0.321-0.099,0.725-0.204,1.208-0.316c0.481-0.11,1.007-0.208,1.576-0.296c0.569-0.087,1.172-0.161,1.803-0.223
			C181.225,33.792,181.859,33.762,182.503,33.762z M182.949,49.952c0.544,0,1.062-0.013,1.56-0.037
			c0.496-0.022,0.894-0.062,1.188-0.11v-4.195c-0.223-0.051-0.558-0.1-1.003-0.149c-0.444-0.049-0.854-0.075-1.226-0.075
			c-0.521,0-1.009,0.032-1.469,0.094c-0.457,0.062-0.857,0.181-1.205,0.354c-0.348,0.172-0.618,0.407-0.816,0.706
			c-0.199,0.297-0.299,0.667-0.299,1.112c0,0.866,0.292,1.469,0.873,1.801C181.136,49.786,181.934,49.952,182.949,49.952z"/>
		<path fill="#333333" d="M196.021,34.95c0.939-0.272,2.154-0.526,3.64-0.761c1.483-0.235,3.046-0.354,4.679-0.354
			c1.659,0,3.038,0.217,4.143,0.65c1.102,0.433,1.975,1.047,2.617,1.838c0.643,0.793,1.101,1.733,1.373,2.822
			c0.272,1.091,0.409,2.304,0.409,3.64v11.027h-5.533V43.454c0-1.785-0.234-3.047-0.706-3.787c-0.472-0.744-1.349-1.116-2.636-1.116
			c-0.397,0-0.817,0.02-1.265,0.058c-0.444,0.035-0.84,0.08-1.188,0.129v15.076h-5.533V34.95z"/>
	</g>
	<g transform="translate(0, 0)">
		<path fill="none" stroke="#333333" stroke-width="4" stroke-miterlimit="10" d="M46.29,39.22l3.018-2.661
			c1.507-1.332,2.307-3.282,2.307-5.237v-9.316"/>
		<path fill="none" stroke="#333333" stroke-width="4" stroke-miterlimit="10" d="M33.867,59.275v-5.681
			c0-2.04,0.887-3.903,2.308-5.234l3.016-2.661"/>
		<path fill="none" stroke="#333333" stroke-width="4" stroke-miterlimit="10" d="M51.614,59.275v-5.681
			c0-2.04-0.885-3.903-2.308-5.234L36.263,36.646c-1.509-1.33-2.308-3.281-2.308-5.234v-9.406"/>
		<polyline fill="none" stroke="#333333" stroke-width="4" stroke-linecap="square" stroke-miterlimit="10" points="46.29,27.33 
			51.614,22.005 56.938,27.33 		"/>
		<polyline fill="none" stroke="#333333" stroke-width="4" stroke-linecap="square" stroke-miterlimit="10" points="39.19,27.33 
			33.867,22.005 28.543,27.33 		"/>
	</g>
</g>
</svg>
