<?xml version="1.0" encoding="utf-8"?>
<!-- Generator: Adobe Illustrator 15.0.0, SVG Export Plug-In . SVG Version: 6.00 Build 0)  -->
<!DOCTYPE svg PUBLIC "-//W3C//DTD SVG 1.1//EN" "http://www.w3.org/Graphics/SVG/1.1/DTD/svg11.dtd">
<svg version="1.1" id="Layer_1" xmlns="http://www.w3.org/2000/svg" xmlns:xlink="http://www.w3.org/1999/xlink" x="0px" y="0px"
	 width="240px" height="80px" viewBox="0 0 240 80" enable-background="new 0 0 240 80" xml:space="preserve">
<g>
	<path fill="#333333" d="M54.993,19.951c-11.313,0-20.493,9.181-20.493,20.493c0,19.853,4.913,20.493,20.493,20.493
		c11.312,0,20.494-9.182,20.494-20.493C75.487,29.132,66.307,19.951,54.993,19.951z M54.993,55.525
		c-12.608,0-15.083,1.779-15.083-15.081c0-8.34,6.763-15.083,15.083-15.083c8.34,0,15.082,6.762,15.082,15.083
		C70.077,48.785,63.333,55.525,54.993,55.525z"/>
	<circle fill="#333333" cx="58.602" cy="34.167" r="4.262"/>
	<g enable-background="new    ">
		<path fill="#333333" d="M81.331,27.485h8.946c4.077,0,7.036,0.58,8.877,1.74c1.841,1.16,2.762,3.005,2.762,5.535
			c0,1.717-0.403,3.126-1.209,4.228c-0.806,1.101-1.878,1.763-3.215,1.984v0.197c1.822,0.406,3.136,1.166,3.942,2.28
			c0.806,1.113,1.209,2.596,1.209,4.443c0,2.621-0.947,4.666-2.841,6.135c-1.894,1.468-4.466,2.201-7.717,2.201H81.331V27.485z
			 M87.426,38.87h3.539c1.651,0,2.847-0.256,3.588-0.767c0.74-0.511,1.111-1.356,1.111-2.536c0-1.101-0.403-1.891-1.209-2.369
			c-0.806-0.479-2.081-0.718-3.824-0.718h-3.205V38.87z M87.426,43.706v7.491h3.971c1.678,0,2.917-0.321,3.716-0.965
			c0.799-0.642,1.199-1.625,1.199-2.948c0-2.386-1.704-3.578-5.112-3.578H87.426z"/>
		<path fill="#333333" d="M124.939,56.23h-16.555V27.485h16.555v4.994H114.48v6.312h9.732v4.994h-9.732v7.412h10.459V56.23z"/>
		<path fill="#333333" d="M137.032,45.2v11.03h-6.095V27.485h8.375c3.905,0,6.795,0.711,8.67,2.133s2.812,3.582,2.812,6.479
			c0,1.691-0.466,3.195-1.396,4.513c-0.932,1.316-2.248,2.35-3.951,3.097c4.324,6.462,7.144,10.637,8.453,12.524h-6.764
			l-6.861-11.03H137.032z M137.032,40.246h1.966c1.927,0,3.349-0.321,4.267-0.963c0.917-0.642,1.376-1.651,1.376-3.028
			c0-1.363-0.469-2.333-1.404-2.91c-0.938-0.577-2.39-0.865-4.355-0.865h-1.848L137.032,40.246L137.032,40.246z"/>
		<path fill="#333333" d="M163.614,45.2v11.03h-6.095V27.485h8.375c3.905,0,6.795,0.711,8.67,2.133s2.812,3.582,2.812,6.479
			c0,1.691-0.466,3.195-1.396,4.513c-0.932,1.316-2.248,2.35-3.951,3.097c4.324,6.462,7.144,10.637,8.453,12.524h-6.764
			l-6.861-11.03H163.614z M163.614,40.246h1.966c1.927,0,3.349-0.321,4.267-0.963c0.917-0.642,1.376-1.651,1.376-3.028
			c0-1.363-0.469-2.333-1.404-2.91c-0.938-0.577-2.39-0.865-4.355-0.865h-1.848L163.614,40.246L163.614,40.246z"/>
		<path fill="#333333" d="M193.047,39.322l5.997-11.836h6.565l-9.534,17.558V56.23h-6.056V45.24l-9.537-17.755h6.606L193.047,39.322
			z"/>
	</g>
</g>
</svg>
