<?xml version="1.0" standalone="no"?>
<!DOCTYPE svg PUBLIC "-//W3C//DTD SVG 20010904//EN"
 "https://www.w3.org/TR/2001/REC-SVG-20010904/DTD/svg10.dtd">
<svg version="1.0" xmlns="https://www.w3.org/2000/svg"
 width="700.000000pt" height="700.000000pt" viewBox="0 0 700.000000 700.000000"
 preserveAspectRatio="xMidYMid meet">
<metadata>
Created by potrace 1.11, written by Peter Selinger 2001-2013
</metadata>
<g transform="translate(0.000000,700.000000) scale(0.100000,-0.100000)"
fill="#000000" stroke="none">
<path d="M2624 6200 c-68 -10 -158 -91 -196 -177 -18 -40 -21 -43 -33 -27 -11
16 -16 10 -50 -57 -37 -73 -47 -100 -145 -359 -54 -143 -178 -440 -189 -452
-4 -4 -22 -10 -41 -12 -165 -24 -190 -26 -345 -40 -147 -13 -480 -14 -540 -2
-16 4 -56 11 -88 17 -126 22 -282 87 -370 154 -28 22 -57 56 -72 85 -41 80
-90 101 -190 78 -103 -23 -192 -89 -257 -194 -57 -90 -66 -186 -23 -253 60
-96 162 -196 246 -244 92 -51 286 -118 384 -132 22 -3 45 -8 52 -10 97 -32
660 -19 874 20 9 2 40 6 69 10 29 4 62 8 72 10 13 3 18 0 15 -8 -34 -83 -82
-198 -92 -222 -31 -74 -257 -666 -333 -875 -352 -957 -443 -1249 -468 -1495
-21 -208 1 -390 62 -518 48 -102 161 -197 284 -239 54 -19 87 -23 190 -23 69
0 139 3 155 7 182 42 331 130 507 300 146 142 227 251 324 435 180 340 229
655 111 711 -63 30 -112 -13 -172 -151 -96 -223 -284 -539 -368 -620 -139
-134 -306 -197 -407 -154 -92 40 -139 172 -135 382 2 95 12 212 20 245 2 8 7
35 10 60 4 25 13 79 22 120 8 41 17 86 20 99 32 178 133 520 223 761 17 47 53
148 80 225 26 77 71 203 98 280 28 77 68 190 90 250 98 274 197 504 216 506
26 2 77 11 181 33 182 39 230 48 485 90 95 16 123 21 170 31 14 3 48 7 75 11
28 3 69 9 93 15 23 5 59 12 80 15 20 3 44 7 52 9 8 2 35 7 60 10 46 6 145 22
190 29 41 8 241 35 295 41 28 3 66 7 85 10 19 3 58 7 85 10 28 3 73 8 100 11
54 7 65 8 170 18 400 38 929 43 1190 11 22 -3 60 -7 85 -10 159 -20 395 -87
507 -144 231 -117 346 -281 358 -510 5 -95 21 -123 80 -144 55 -19 146 0 217
46 86 56 126 114 156 225 17 64 21 183 9 242 -44 214 -175 394 -387 531 -199
130 -409 199 -795 264 -101 17 -863 27 -995 13 -36 -4 -114 -10 -175 -13 -105
-5 -135 -8 -250 -20 -27 -3 -70 -7 -95 -10 -98 -10 -166 -17 -185 -21 -11 -2
-33 -7 -50 -9 -16 -3 -91 -17 -165 -30 -74 -14 -151 -27 -170 -29 -59 -8 -111
-17 -170 -31 -15 -4 -119 -26 -140 -30 -14 -3 -41 -8 -60 -11 -19 -3 -41 -7
-48 -9 -10 -4 -352 -75 -427 -89 -11 -2 -105 -21 -209 -41 -103 -20 -190 -34
-192 -32 -3 2 12 46 32 98 20 52 50 137 66 189 16 52 56 176 88 275 93 287
100 311 100 367 -1 79 -33 109 -106 98z"/>
</g>
</svg>
