<?xml version="1.0" encoding="utf-8"?>
<!-- Generator: Adobe Illustrator 15.0.0, SVG Export Plug-In . SVG Version: 6.00 Build 0)  -->
<!DOCTYPE svg PUBLIC "-//W3C//DTD SVG 1.1//EN" "http://www.w3.org/Graphics/SVG/1.1/DTD/svg11.dtd">
<svg version="1.1" id="Layer_1" xmlns="http://www.w3.org/2000/svg" xmlns:xlink="http://www.w3.org/1999/xlink" x="0px" y="0px"
	 width="240px" height="80px" viewBox="0 0 240 80" enable-background="new 0 0 240 80" xml:space="preserve">
<g>
	<path fill="#FFFFFF" d="M57.501,13C42.59,13,30.5,25.089,30.5,40.001c0,14.91,12.09,26.997,27.001,26.997
		c14.914,0,27.001-12.087,27.001-26.997C84.502,25.089,72.415,13.002,57.501,13L57.501,13L57.501,13z M101.707,26.595l6.546,18.487
		l6.513-18.487h6.896v25.489h-5.268v-6.965l0.525-12.028l-6.88,18.993h-3.605L99.57,33.107l0.524,12.012v6.965h-5.253V26.595
		H101.707z M137.262,50.158c-1.248,1.517-2.977,2.275-5.182,2.275c-2.03,0-3.581-0.582-4.648-1.75
		c-1.066-1.164-1.611-2.879-1.639-5.131v-12.41h5.061v12.251c0,1.977,0.898,2.963,2.695,2.963c1.719,0,2.896-0.597,3.538-1.786
		V33.143h5.076v18.941h-4.761L137.262,50.158z M156.24,46.85c0-0.619-0.307-1.104-0.919-1.462c-0.613-0.354-1.597-0.673-2.95-0.952
		c-4.505-0.945-6.758-2.857-6.758-5.744c0-1.68,0.697-3.084,2.093-4.209c1.394-1.128,3.218-1.689,5.468-1.689
		c2.405,0,4.33,0.566,5.771,1.698s2.16,2.603,2.16,4.41h-5.061c0-0.724-0.232-1.321-0.699-1.794s-1.195-0.709-2.188-0.709
		c-0.854,0-1.514,0.193-1.979,0.577c-0.466,0.385-0.7,0.874-0.7,1.472c0,0.561,0.268,1.013,0.797,1.354
		c0.531,0.346,1.43,0.644,2.688,0.896c1.263,0.249,2.324,0.532,3.188,0.848c2.669,0.979,4.009,2.681,4.009,5.095
		c0,1.729-0.742,3.127-2.224,4.195c-1.483,1.067-3.397,1.6-5.744,1.6c-1.588,0-2.997-0.28-4.229-0.85
		c-1.231-0.564-2.194-1.342-2.896-2.327c-0.699-0.985-1.053-2.052-1.053-3.194h4.797c0.047,0.896,0.381,1.586,1,2.063
		c0.615,0.479,1.443,0.719,2.485,0.719c0.97,0,1.7-0.184,2.196-0.55C155.992,47.927,156.24,47.446,156.24,46.85z M164.38,28.239
		c0-0.759,0.255-1.383,0.763-1.874c0.508-0.491,1.199-0.735,2.074-0.735c0.866,0,1.555,0.245,2.068,0.735
		c0.512,0.491,0.77,1.115,0.77,1.874c0,0.771-0.26,1.398-0.776,1.891c-0.522,0.491-1.206,0.736-2.062,0.736
		c-0.852,0-1.535-0.245-2.057-0.736C164.64,29.641,164.38,29.01,164.38,28.239z M169.756,52.084h-5.078V33.142h5.078V52.084z
		 M175.305,52.084v-15.23h-2.816v-3.712h2.816v-1.609c0-2.124,0.61-3.774,1.83-4.947c1.221-1.173,2.926-1.759,5.121-1.759
		c0.697,0,1.559,0.114,2.574,0.346l-0.051,3.891c-0.42-0.105-0.938-0.158-1.541-0.158c-1.904,0-2.855,0.898-2.855,2.7v1.535h3.764
		v3.712h-3.764v15.231H175.305L175.305,52.084z M193.846,44.924l3.5-11.782h5.428l-7.611,21.883l-0.424,0.998
		c-1.133,2.476-2.996,3.712-5.604,3.712c-0.734,0-1.479-0.11-2.24-0.332V55.57l0.771,0.017c0.957,0,1.671-0.146,2.146-0.438
		c0.473-0.291,0.843-0.773,1.109-1.451l0.598-1.559l-6.637-18.996h5.445L193.846,44.924z"/>
	<g transform="translate(0, 0)">
		<path fill="none" stroke="#666666" stroke-width="2" stroke-miterlimit="10" d="M44.221,42.734V35.52
			c0-5.972,4.839-10.812,10.813-10.812h5.406c5.972,0,10.813,4.841,10.813,10.812v7.222"/>
		<path fill="none" stroke="#666666" stroke-width="2" stroke-linecap="square" stroke-miterlimit="10" d="M52.331,39.861
			c-0.647-0.185-1.323-0.285-2.027-0.285c-4.104,0-7.433,3.327-7.433,7.434c0,4.105,3.328,7.432,7.433,7.432
			c0.706,0,1.38-0.103,2.027-0.282V39.861z"/>
		<path fill="none" stroke="#666666" stroke-width="2" stroke-linecap="square" stroke-miterlimit="10" d="M63.145,54.157
			c0.645,0.181,1.322,0.284,2.027,0.284c4.105,0,7.435-3.329,7.435-7.436c0-4.104-3.328-7.434-7.435-7.434
			c-0.706,0-1.383,0.103-2.027,0.286V54.157z"/>
	</g>
</g>
</svg>
