<?xml version="1.0" encoding="utf-8"?>
<!-- Generator: Adobe Illustrator 23.1.1, SVG Export Plug-In . SVG Version: 6.00 Build 0)  -->
<svg version="1.1" id="Layer_1" xmlns="http://www.w3.org/2000/svg" xmlns:xlink="http://www.w3.org/1999/xlink" x="0px" y="0px"
	 viewBox="0 0 548 411" style="enable-background:new 0 0 548 411;" xml:space="preserve">
<style type="text/css">
	.st0{fill:#CD6799;}
</style>
<path class="st0" d="M471.91,239.45c-19.14,0.1-35.73,4.7-49.63,11.55c-5.08-10.15-10.23-19.07-11.09-25.71
	c-1.01-7.75-2.18-12.37-0.96-21.6c1.22-9.23,6.56-22.3,6.48-23.28c-0.08-0.98-1.2-5.68-12.24-5.76c-11.04-0.08-20.49,2.12-21.6,5.04
	c-1.11,2.92-3.24,9.48-4.56,16.32c-1.93,10.01-22.05,45.72-33.47,64.41c-3.73-7.29-6.91-13.72-7.57-18.8
	c-1.01-7.75-2.18-12.37-0.96-21.6c1.22-9.23,6.56-22.3,6.48-23.28c-0.08-0.98-1.2-5.68-12.24-5.76c-11.04-0.08-20.49,2.12-21.6,5.04
	c-1.11,2.92-2.3,9.73-4.56,16.32c-2.26,6.59-29,66.16-36,81.6c-3.57,7.87-6.67,14.19-8.87,18.5c-0.01-0.01-0.01-0.02-0.01-0.02
	s-0.13,0.29-0.37,0.77c-1.88,3.67-2.99,5.71-2.99,5.71s0.01,0.03,0.03,0.08c-1.49,2.7-3.08,5.2-3.87,5.2
	c-0.55,0-1.66-7.18,0.24-17.04c3.98-20.66,13.54-52.89,13.44-54c-0.05-0.57,1.78-6.18-6.24-9.12c-7.79-2.85-10.57,1.91-11.28,1.92
	c-0.69,0.01-1.2,1.68-1.2,1.68s8.68-36.24-16.56-36.24c-15.78,0-37.65,17.26-48.42,32.91c-6.8,3.71-21.34,11.65-36.78,20.13
	c-5.93,3.26-11.98,6.59-17.71,9.75c-0.39-0.43-0.78-0.86-1.18-1.29c-30.61-32.65-87.19-55.75-84.79-99.65
	c0.87-15.96,6.42-57.98,108.72-108.96c83.8-41.76,150.89-30.27,162.48-4.8c16.56,36.38-35.85,104.01-122.88,113.76
	c-33.16,3.72-50.62-9.13-54.96-13.92c-4.57-5.04-5.25-5.27-6.96-4.32c-2.78,1.54-1.02,5.99,0,8.64c2.6,6.76,13.26,18.75,31.44,24.72
	c15.99,5.25,54.92,8.13,102-10.08c52.73-20.4,93.9-77.13,81.81-124.56c-12.3-48.23-92.28-64.09-167.97-37.2
	c-45.05,16-93.82,41.12-128.88,73.92c-41.69,39-48.34,72.94-45.6,87.12c9.73,50.39,79.19,83.21,107,107.53
	c-1.37,0.76-2.66,1.47-3.83,2.11c-13.94,6.9-66.89,34.6-80.13,63.88c-15.02,33.21,2.39,57.03,13.92,60.24
	c35.72,9.94,72.37-7.94,92.07-37.32c19.69-29.37,17.29-67.62,8.25-85.08c-0.11-0.22-0.24-0.43-0.35-0.64
	c3.6-2.13,7.27-4.3,10.91-6.43c7.1-4.17,14.06-8.05,20.11-11.34c-3.38,9.27-5.86,20.38-7.15,36.42
	c-1.51,18.85,6.21,43.21,16.32,52.8c4.45,4.22,9.81,4.32,13.2,4.32c11.76,0,17.13-9.79,23.04-21.36
	c7.25-14.2,13.68-30.72,13.68-30.72s-8.07,44.64,13.92,44.64c8.01,0,16.07-10.39,19.66-15.69c0.01,0.06,0.02,0.09,0.02,0.09
	s0.21-0.34,0.62-1.04c0.83-1.27,1.3-2.08,1.3-2.08s0.02-0.08,0.04-0.23c3.22-5.59,10.36-18.34,21.08-39.37
	c13.84-27.17,27.12-61.2,27.12-61.2s1.24,8.32,5.28,22.08c2.38,8.1,7.44,17.04,11.42,25.63c-3.21,4.46-5.18,7.01-5.18,7.01
	s0.02,0.05,0.05,0.13c-2.57,3.41-5.44,7.08-8.45,10.67c-10.92,13.01-23.94,27.87-25.68,32.16c-2.05,5.05-1.57,8.77,2.4,11.76
	c2.9,2.18,8.06,2.52,13.44,2.16c9.82-0.66,16.73-3.09,20.13-4.58c5.31-1.88,11.5-4.83,17.31-9.1c10.72-7.88,17.18-19.15,16.56-34.08
	c-0.34-8.23-2.97-16.38-6.29-24.08c0.97-1.4,1.95-2.81,2.93-4.24c16.9-24.7,30-51.84,30-51.84s1.24,8.32,5.28,22.08
	c2.05,6.96,6.09,14.56,9.72,22.01c-15.89,12.91-25.74,27.91-29.16,37.75c-6.32,18.2-1.37,26.44,7.92,28.32
	c4.21,0.85,10.15-1.08,14.62-2.97c5.56-1.85,12.25-4.92,18.5-9.51c10.72-7.88,21.02-18.91,20.4-33.84
	c-0.28-6.8-2.13-13.54-4.63-20.02c13.47-5.61,30.9-8.73,53.11-6.14c47.64,5.56,56.99,35.31,55.2,47.76
	c-1.79,12.45-11.78,19.29-15.12,21.36c-3.34,2.07-4.36,2.78-4.08,4.32c0.41,2.23,1.95,2.15,4.8,1.67
	c3.92-0.66,25.02-10.13,25.92-33.11C549.38,271.24,521.42,239.19,471.91,239.45z M104.7,363.25
	c-15.78,17.21-37.83,23.72-47.28,18.24c-10.21-5.92-6.17-31.26,13.2-49.53c11.8-11.13,27.04-21.39,37.15-27.7
	c2.3-1.38,5.68-3.42,9.79-5.88c0.68-0.39,1.06-0.6,1.06-0.6l-0.02-0.03c0.79-0.47,1.61-0.96,2.44-1.46
	C128.09,322.29,121.26,345.18,104.7,363.25z M219.66,285.1c-5.5,13.4-17,47.68-24,45.84c-6.01-1.58-9.67-27.63-1.2-53.28
	c4.26-12.91,13.37-28.33,18.72-34.32c8.61-9.63,18.1-12.79,20.4-8.88C236.52,239.44,223.11,276.7,219.66,285.1z M314.64,330.42
	c-2.33,1.22-4.47,1.98-5.46,1.39c-0.73-0.43,0.96-2.04,0.96-2.04s11.88-12.78,16.56-18.6c2.72-3.38,5.88-7.4,9.32-11.89
	c0.03,0.45,0.04,0.89,0.04,1.33C336.02,315.92,321.23,326.26,314.64,330.42z M387.81,313.74c-1.74-1.24-1.45-5.23,4.27-17.69
	c2.24-4.89,7.36-13.12,16.26-20.99c1.03,3.24,1.66,6.34,1.64,9.23C409.86,303.56,396.12,310.75,387.81,313.74z"/>
</svg>
