<?xml version="1.0" encoding="utf-8"?>
<!-- Generator: Adobe Illustrator 23.1.1, SVG Export Plug-In . SVG Version: 6.00 Build 0)  -->
<svg version="1.1" id="Layer_1" xmlns="http://www.w3.org/2000/svg" xmlns:xlink="http://www.w3.org/1999/xlink" x="0px" y="0px"
	 viewBox="0 0 347 160" style="enable-background:new 0 0 347 160;" xml:space="preserve">
<style type="text/css">
	.st0{fill:#FFFFFF;}
</style>
<g>
	<g>
		<path class="st0" d="M83.21,9.16c-0.01,0.04-0.02,0.07-0.03,0.11c-0.13,0.44-0.25,0.88-0.38,1.32
			C82.93,10.11,83.07,9.63,83.21,9.16z"/>
		<path class="st0" d="M346.9,62.98c-0.25-0.44-0.49-0.88-0.74-1.31c-0.89-0.74-1.91-1-3.06-0.79c-0.88,0.03-1.73,0.21-2.58,0.41
			c-0.99,0.23-1.96,0.52-2.93,0.81c-0.37,0.11-0.74,0.2-1.1,0.33c-1.05,0.37-2.11,0.73-3.14,1.15c-2.83,1.16-5.54,2.65-8.18,4.18
			c-2.07,1.2-4.06,2.52-5.98,3.93c-2.59,1.9-5.09,3.95-7.48,6.09c-4.22,3.77-7.94,8.02-11.5,12.39c-0.13,0.15-0.25,0.31-0.37,0.46
			c0.13-0.6,0.27-1.2,0.41-1.79c0.84-3.62,1.69-7.23,2.59-10.83c0.77-3.1,1.59-6.18,2.4-9.27c0.19-0.71,0.37-1.42,0.55-2.14
			c0.11-0.43,0.22-0.86,0.33-1.29c0.13-0.5,1.28-4.93-1.93-5.56c-1.18-0.23-2.75,0.08-3.79,0.49c-1.77,0.7-5.78,3.61-6.62,6.15
			c-7.55,22.79-8.84,28.16-30,55.05c-2.51,2.87-5.19,5.6-8.08,8.1c-1.18,0.91-2.41,1.75-3.69,2.52
			c-0.85,0.41-12.21,7.57-12.65-11.07c-0.09-5.94,0.99-11.89,2.55-17.61c0.79-2.62,1.68-5.21,2.67-7.77
			c1.82-0.97,3.63-1.94,5.41-2.98c1.54-0.9,3.04-1.84,4.54-2.8c1.39-0.89,2.73-1.85,4.09-2.79c0.62-0.43,1.21-0.91,1.8-1.36
			c0.56-0.42,1.12-0.83,1.66-1.27c1.9-1.55,3.82-3.08,5.67-4.69c1.27-1.1,2.5-2.24,3.72-3.38s2.34-2.42,3.45-3.67
			c1.6-1.8,3.13-3.69,4.35-5.76c0.68-1.16,1.36-2.32,1.92-3.53c0.21-0.47,0.39-0.95,0.54-1.44c0.34-1.09-1.06-15.19-15.39-9.97
			c-1.72,0.63-3.36,1.55-4.95,2.43c-1.04,0.58-2.03,1.23-2.98,1.95c-2.52,1.92-4.85,4.01-6.95,6.36c-1.42,1.6-2.8,3.23-4.09,4.93
			c-0.64,0.84-1.28,1.69-1.92,2.54c-0.37,0.49-0.69,1.03-1.04,1.55c-0.59,0.9-1.18,1.79-1.77,2.69c-0.29,0.44-0.54,0.91-0.81,1.37
			c-0.59,1.02-1.17,2.03-1.76,3.05c-1.94,3.36-3.72,6.81-5.36,10.32c-0.64,1.37-0.71,1.45-0.99,2.1c-1.13,0.6-3.97,1.94-4.7,2.32
			c0,0-0.1,0.38,0.12-0.45c0.55-2.06,1.11-4.12,1.66-6.18c0.37-1.39,0.66-2.8,0.97-4.2c0.34-1.52,0.68-3.03,0.94-4.56
			c0.29-1.65,0.56-3.29,0.79-4.95c0.42-2.95,0.82-5.89,0.74-8.88c-0.07-2.74-0.17-5.55-1.44-8.05c-0.66-1.3-5.49-9.53-16.94-0.71
			c-2.01,1.55-3.96,3.18-5.7,5.03c-1.76,1.87-3.41,3.84-4.99,5.85c-2.03,2.57-3.98,5.22-5.81,7.95c-0.91,1.36-1.74,2.75-2.54,4.17
			c-1.17,2.07-2.35,4.15-3.39,6.29c-0.23,0.47-0.46,0.95-0.69,1.42c0.03-0.13,0.06-0.27,0.1-0.4
			c20.05-64.79,23.43-63.39,23.78-63.43c70.73-4.49,92.51,7.9,92.04,24.78c-0.01,0.53-0.01,1.05-0.05,1.57
			c-0.02,0.24-0.03,0.49-0.04,0.73c-0.04,1.4,1.77,4.08,5.98,3.17c1.81-0.4,3.51-1.09,5.02-2.17c7.43-5.33,10-29.38-24.2-39.52
			c-2.61-0.77-5.28-1.32-7.95-1.86c-0.37-0.08-0.75-0.15-1.12-0.22c-0.65-0.12-1.31-0.24-1.97-0.33c-2.23-0.33-4.45-0.65-6.68-0.98
			c-1.05-0.15-2.09-0.32-3.15-0.42c-2.19-0.19-4.37-0.38-6.56-0.57c-1.44-0.13-2.9-0.33-4.34-0.38c-1.54-0.05-3.07-0.09-4.61-0.14
			c-3.1-0.1-6.22-0.3-9.32-0.23c-4.07,0.09-8.14,0.17-12.21,0.26c-0.96,0.02-1.92,0.11-2.87,0.17c-2.37,0.15-4.73,0.29-7.1,0.44
			c-3.29,0.2-6.57,0.43-9.84,0.76c-4.17,0.43-8.33,0.85-12.5,1.28c-0.81,0.08-1.62,0.21-2.43,0.33c-2.27,0.32-4.55,0.64-6.82,0.96
			c-2.71,0.38-5.42,0.72-8.11,1.17c-4.29,0.71-8.57,1.42-12.86,2.13c-2.7,0.45-5.38,0.98-8.07,1.48c-3.04,0.57-6.1,1.1-9.13,1.73
			c-4.11,0.85-8.22,1.71-12.32,2.56c-13.02,2.71-26,5.6-38.99,8.43c-6.09,1.33-12.2,2.57-18.32,3.78
			c-4.52,0.89-9.03,1.79-13.56,2.63c0.45-1.2,0.9-2.39,1.36-3.58c1.16-2.98,2.21-5.99,3.22-9.02c1.03-3.09,2.14-6.16,3.16-9.25
			c0.32-0.97,0.61-1.93,0.89-2.92c0.24-0.86,0.48-1.71,0.7-2.57c0.09-0.34,0.15-0.68,0.2-1.03c0.03-0.2,0.06-0.4,0.09-0.6
			c0.07-0.47-0.04-1.62-0.06-1.83c-0.05-0.56-0.41-1.07-0.76-1.51c-0.5-0.42-1.06-0.63-1.68-0.63c-0.18,0-0.36,0.02-0.54,0.05
			c-1.66,0.17-3.27,1.3-4.4,2.42c-0.92,0.91-1.85,2.12-2.26,3.41c-0.15,0.3-0.28,0.6-0.41,0.91c-0.08,0.21-0.17,0.42-0.25,0.62
			c-0.15,0.37-0.3,0.74-0.46,1.1c-0.37,0.87-0.74,1.73-1.11,2.59c-0.66,1.52-1.31,3.04-1.95,4.57c-1.27,2.98-2.45,5.99-3.67,8.99
			c-1.25,3.08-2.61,6.11-3.9,9.17c-0.18,0.43-0.36,0.86-0.53,1.29c-1.85,0.31-3.73,0.53-5.59,0.8c-1.45,0.21-2.89,0.42-4.35,0.56
			c-1.73,0.17-3.46,0.34-5.19,0.5c-5.79,0.32-11.59,0.22-17.29-0.95c-3.91-0.99-7.8-2.42-11.05-4.8c-0.49-0.46-0.93-0.95-1.34-1.49
			c-0.56-0.76-0.91-1.67-1.29-2.53c-0.74-0.91-1.72-1.37-2.92-1.38c-2.34-0.2-4.94,0.83-6.73,2.19c-2.77,2.1-6.51,6.97-4.62,11.58
			c0.36,0.88,2.87,4.74,6.71,7.26c0.99,0.65,2.07,1.16,3.15,1.65c2.03,0.93,4.17,1.61,6.33,2.18c2.71,0.72,5.46,1.26,8.24,1.59
			c4.99,0.59,10.11,0.46,15.1-0.01c2-0.18,3.99-0.37,5.99-0.55c2.86-0.26,5.7-0.69,8.54-1.1c-0.24,0.54-0.47,1.08-0.71,1.62
			c-1.37,3.06-17.74,45.24-24.62,67.16c-6.56,20.91-0.86,30.02,0.39,31.68c6.49,8.61,22.42,9.23,34.59-3.75
			c2.44-2.61,4.67-5.4,6.87-8.19c0.44-0.55,0.82-1.15,1.23-1.72c0-0.01,0.01-0.01,0.01-0.02c-0.01,0.45,0.01,0.91,0,1.36
			c-0.18,4.59,0.76,7.18,1.1,8.04c2.09,5.26,15.56,3.66,21.96-6.69c1.79-2.9,3.54-5.71,5.17-8.65c0.73-1.32,1.41-2.64,2.07-3.99
			c0.48-0.98,0.96-1.95,1.43-2.93c-0.69,2.47-1.37,4.93-2.03,7.41c-0.5,1.87-0.99,3.75-1.47,5.63c-0.23,0.89-0.45,1.78-0.68,2.67
			c-0.12,0.46-0.23,0.92-0.34,1.39c-0.06,0.23-0.12,0.46-0.16,0.69c-0.91,4.5,2.72,5.24,3.91,5.02c0.71-0.05,2.19-0.56,2.29-0.6
			c1.29-0.51,3.45-1.93,4.33-2.96c0.84-0.96,1.69-1.88,2.37-2.95c0.72-1.12,1.32-2.31,1.95-3.49c0.39-0.72,0.76-1.44,1.13-2.17
			c0.76-1.49,1.48-3,2.21-4.51c1.39-2.86,2.67-5.8,3.92-8.73c2.57-6.05,5.12-12.1,7.88-18.07c2.78-6.02,5.62-12.01,8.66-17.91
			c-0.76,2.4-1.53,4.81-2.28,7.21c-1.02,3.24-1.99,6.49-2.98,9.74c-0.89,2.93-1.8,5.85-2.65,8.8c-1.17,4.04-2.34,8.08-3.39,12.16
			c-0.82,3.18-1.51,6.4-2.12,9.62c-0.15,0.78-0.29,1.57-0.41,2.36c-0.07,0.44-0.13,0.88-0.2,1.33c-0.23,1.64-0.45,3.63,0.97,4.84
			c0.95,0.8,2.06,1.08,3.3,0.86c1.59-0.27,3.05-0.87,4.36-1.8c1.87-1.08,3.27-2.7,4.58-4.36c0.3-0.39,0.54-0.81,0.79-1.24
			c0.86-1.46,1.71-2.97,2.38-4.53c0.38-0.87,0.75-1.74,1.13-2.61c0.64-1.48,1.25-2.98,1.86-4.47c1.19-2.91,2.34-5.84,3.46-8.78
			c2.42-6.32,4.84-12.65,7.27-18.96c1.22-3.16,2.52-6.28,3.84-9.4c1.26-2.97,2.67-5.87,4.11-8.77c0.35-0.7,0.73-1.39,1.11-2.08
			c0.56-0.92,1.11-1.84,1.67-2.76c0.53-0.87,1.12-1.7,1.68-2.54c0.82-1.24,1.75-2.4,2.69-3.56c0.31-0.35,0.62-0.7,0.95-1.04
			c-1.72,5.63-3.59,11.21-5.36,16.83c-1.98,6.27-4.03,12.53-6.09,18.78c-2.31,7.03-4.43,14.11-6.44,21.23
			c-0.85,3.01-1.6,6.05-2.33,9.09c-0.35,1.46-0.68,2.93-0.98,4.4c-0.09,0.46-0.13,0.93-0.16,1.4c-0.47,7.58,8.63,3.97,12.9-1.1
			c1.23-1.34,5.52-5.87,6.82-6.99c0.35-0.28,0.71-0.55,1.06-0.82c-0.49,2.27-1.04,7.74-1.24,8.37c-0.2,0.63-0.39,1.26-0.59,1.89
			c-0.26,0.82-0.5,1.64-0.72,2.48c-0.09,0.33-0.17,0.66-0.24,0.99c-0.15,0.78-0.04,1.59,0.08,2.37c0.31,1.12,1.03,1.83,2.16,2.13
			c1.34,0.24,2.63,0.07,3.87-0.5c1.24-0.54,2.37-1.24,3.39-2.1c0,0.98,0.06,1.96,0.16,2.94c0.1,0.99,0.37,1.98,0.76,2.89
			c0.37,0.86,0.85,1.71,1.43,2.45c0.65,0.85,1.67,1.29,2.6,1.78c0.81,0.43,1.75,0.42,2.66,0.41c0.14,0,0.28,0,0.42,0
			c1.2,0,2.33-0.39,3.47-0.75c0.52-0.16,0.99-0.39,1.47-0.64c1.27-0.65,2.53-1.31,3.71-2.11c1.67-1.13,3.2-2.46,4.73-3.76
			c0.95-0.81,1.85-1.68,2.72-2.56c2.24-2.28,4.32-4.73,6.28-7.24c1.46-1.87,2.75-3.84,3.99-5.85c0.93-1.52,1.8-3.08,2.7-4.62
			c2.05-3.51,3.82-7.18,5.51-10.87c0.59-1.3,1.17-2.58,1.72-3.9c0.65-1.58,1.37-3.15,1.96-4.76c0.68-1.87,1.3-4.02,1.99-5.89
			c0.1-0.27,3.4-1.84,4.16-2.05c-0.28,0.85-0.97,2.54-1.24,3.39c-0.92,2.93-1.74,5.89-2.42,8.88c-1.08,4.77-1.87,9.72-1.59,14.6
			c1.56,27.18,22.88,18.49,24.5,17.8c1.81-0.77,3.53-1.77,5.23-2.75c2.77-1.6,5.2-3.64,7.64-5.69c4.28-3.58,7.95-7.74,11.51-12.01
			c3.03-3.64,5.7-7.53,8.05-11.63c0.29-0.5,0.57-1,0.85-1.51c-0.99,4.9-3.94,20.96-3.85,22.23c-0.01,1.79,3.07,4.25,8.49,0.47
			c1.37-0.77,3.19-2.7,4.06-3.97c0.74-1.08,1.78-3.04,1.88-4.43c0.02-0.23,0.04-0.45,0.07-0.68c0.06-0.43,0.12-0.86,0.19-1.3
			c0.06-0.39,0.12-0.77,0.18-1.16c0.99-2.9,2.28-5.69,3.64-8.45c0.62-1.26,1.23-2.51,1.85-3.76c0.46-0.94,0.94-1.85,1.44-2.77
			c3.19-5.57,6.79-10.91,10.88-15.88c2.74-3.14,5.67-6.11,8.84-8.83c2.8-2.21,5.75-4.23,8.86-6c2.73-1.4,5.58-2.62,8.49-3.6
			c1.44-0.26,2.77-0.81,3.96-1.66c2.04-1.36,3.92-3.41,4.84-5.68C346.97,65.46,347.13,64.24,346.9,62.98z M255.15,79.93
			c0.02-0.02,0.05-0.04,0.07-0.06c-0.08,0.06-0.16,0.13-0.23,0.19c0.35-0.29,0.7-0.58,1.05-0.87c-0.09,0.07-0.18,0.15-0.27,0.22
			c0.03-0.02,0.05-0.04,0.08-0.07c0.05-0.04,0.09-0.08,0.14-0.12c-0.02,0.01-0.03,0.03-0.05,0.04c0,0-0.01,0.01-0.01,0.01
			c-0.03,0.02-0.05,0.04-0.08,0.07c-0.03,0.03-0.07,0.05-0.1,0.08c0.01,0,0.01-0.01,0.02-0.01c-0.02,0.02-0.05,0.04-0.07,0.06
			c-0.04,0.04-0.09,0.07-0.13,0.11c0.03-0.02,0.05-0.04,0.08-0.06c-0.14,0.12-0.28,0.23-0.43,0.35c0.03-0.03,0.06-0.05,0.1-0.08
			C255.26,79.84,255.2,79.89,255.15,79.93z M255.58,79.58c0.11-0.09,0.23-0.19,0.34-0.28c-0.02,0.02-0.04,0.04-0.07,0.05
			C255.76,79.43,255.67,79.5,255.58,79.58z M259.65,76.23c-0.13,0.11-0.26,0.22-0.4,0.33c-0.17,0.14-0.35,0.29-0.52,0.43
			c0.33-0.27,0.66-0.54,0.98-0.81C259.69,76.19,259.67,76.21,259.65,76.23z M251.21,80.96c0.05-0.11,0.11-0.22,0.16-0.32
			c0.41-0.72,0.83-1.44,1.24-2.16c0.56-0.97,1.15-1.89,1.76-2.83c0.68-1.04,1.33-2.11,2.08-3.11c0.83-1.11,1.65-2.23,2.51-3.31
			c0.89-0.99,1.81-1.94,2.8-2.83c4.27-3.53,7.44-1.61,7.54-1.51c0.01,0.03,0.01,0.05,0.02,0.08c-0.01,0.06-0.02,0.11-0.02,0.17
			c-0.16,0.39,0.02,1.24-6.23,7.87c-1.51,1.6-3.2,3.05-4.9,4.46c-0.51,0.42-1.01,0.83-1.52,1.25c-0.65,0.53-1.34,1.02-2.01,1.53
			c-0.54,0.41-1.07,0.82-1.62,1.21c-1.07,0.75-2.13,1.51-3.22,2.25C250.26,82.78,250.75,81.87,251.21,80.96z M74.83,6.28
			c-0.04,0.08-0.08,0.16-0.13,0.24c0,0,0,0,0,0C74.74,6.44,74.78,6.36,74.83,6.28z M172.79,119.03c-0.39,1.14-0.36,1.43-0.82,1.76
			c-2.55,1.84-3.9,2.49-6.51,4.36c0.18-0.8,0.36-1.6,0.54-2.39c0.67-2.97,1.45-5.92,2.27-8.86c0.28-1.01,0.56-2.02,0.84-3.02
			c1.75-5.95,3.61-11.87,5.43-17.8c1.98-6.45,3.88-12.93,5.77-19.4c1.05-3.59,2.17-7.18,3.04-10.82c0.32-1.34,0.61-2.68,0.72-4.05
			c0.23-2.94-1.28-6.51-4.54-5.83c-1.66,0.35-5.96,1.99-13.47,9.43c-1.59,1.57-3.03,3.34-4.42,5.1c-2.05,2.6-4.02,5.26-5.76,8.09
			c-0.77,1.26-1.53,2.53-2.27,3.81c0.34-1.13,0.67-2.27,1-3.4c0.62-2.2,1.34-4.39,1.78-6.64c1.05-5.29-0.41-8.31-2.54-8.87
			c-2.52-0.66-5.21,0.64-7.16,2.17c-0.93,0.73-1.89,1.46-2.74,2.29c-1.68,1.63-3.16,3.45-4.59,5.29c-2.01,2.57-3.86,5.28-5.57,8.06
			c-2.72,4.42-5.22,8.97-7.62,13.57c0.08-0.24,0.16-0.47,0.23-0.71c0.99-3.06,2.11-6.07,3.22-9.09c0.61-1.66,1.23-3.32,1.85-4.99
			c0.3-0.8,0.56-1.61,0.84-2.42c0.18-0.51,0.34-1.03,0.49-1.55c0.28-0.98,0.54-1.96,0.76-2.96c0.26-1.13,0.48-4.45-3.02-3.91
			c-1.1,0.17-2.09,0.6-3,1.24c-1.06,0.7-2.12,1.71-2.83,2.75c-0.46,0.67-0.72,1.18-0.93,1.76c-0.62,1.52-1.43,2.95-2.2,4.4
			c-0.78,1.46-1.55,2.92-2.31,4.39c-1.48,2.87-2.9,5.78-4.35,8.67c-1.5,3-3.02,5.99-4.61,8.94c-1.6,2.95-3.22,5.9-4.82,8.85
			c-3.4,6.27-6.69,12.6-10,18.91c-0.76,1.45-1.56,2.88-2.37,4.3c-1.39,2.23-2.75,4.47-4.29,6.6c-5.05-4.74,2.37-25.79,2.93-27.84
			c1.88-6,3.98-11.93,6.26-17.79c0.85-2.19,1.71-4.37,2.57-6.56c0.38-0.96,0.76-1.92,1.11-2.89c0.24-0.65,0.48-1.31,0.72-1.96
			c0.12-0.34,0.24-0.68,0.36-1.02c0.12-0.35,0.22-0.71,0.33-1.06c0.57-1.89,1.35-7.54-3.56-7.09c-1.63,0.15-3.1,0.89-4.44,1.83
			c-1.6,1.09-2.95,2.42-4.06,3.99c-0.81,0.98-1.31,2.21-1.89,3.34c-0.19,0.38-0.38,0.76-0.58,1.13c-0.34,0.68-0.68,1.35-1.02,2.03
			c-0.76,1.54-1.5,3.09-2.22,4.65c-1.32,2.84-2.52,5.74-3.71,8.63c-2.56,6.21-4.98,12.48-7.58,18.68c-0.95,2.26-1.94,4.5-3.03,6.7
			c-0.59,1.2-1.14,2.43-1.79,3.6c-0.34,0.62-0.68,1.23-1.03,1.85c-0.68,1.12-1.36,2.24-2.05,3.37c-0.71,1.17-1.53,2.28-2.26,3.45
			c-3.56,5.71-25.96,21.86-17.49-18.94c0.81-3.89,1.76-7.76,2.83-11.59c1.82-6.06,3.86-12.07,5.94-18.05
			c1.08-3.09,8.95-24.81,10.2-27.92c1.07-2.68,2.24-5.32,3.33-8c2.86-0.51,5.71-1.08,8.56-1.62c3.33-0.63,6.65-1.29,9.97-1.94
			c6.21-1.21,12.4-2.53,18.59-3.87c12.88-2.78,25.75-5.59,38.65-8.26c3.17-0.65,6.33-1.36,9.51-1.96c4.07-0.76,8.14-1.52,12.21-2.28
			c6.11-1.14,12.27-2.09,18.41-3.09c2.56-0.42,5.14-0.71,7.7-1.07c1.69-0.24,5.91-0.6,8.11-0.91c0.22-0.03,0.78-0.08,0.6-0.09
			C199.45,24.45,173.11,118.08,172.79,119.03z M204.14,124.81c-0.39,0.75-0.77,1.51-1.16,2.26c-0.54,0.93-1.09,1.86-1.63,2.79
			c-1.45,2.48-3.07,4.85-4.88,7.09c-1.16,1.31-2.38,2.57-3.67,3.75c-0.22-0.68-0.36-1.38-0.44-2.09c0.03-1.87,0.32-3.71,0.77-5.53
			c0.7-2.15,1.58-4.24,2.62-6.25c6.99-13.44,18.01-19.65,16.77-18.79C212.17,108.89,204.54,124.03,204.14,124.81z M218.08,84.1
			c-0.27,1.53-0.6,3.04-0.94,4.56c-0.32,1.42-0.6,2.85-0.98,4.25c-0.48,1.78-0.96,3.56-1.44,5.34c-0.12,0.38-0.12,0.38-0.24,0.76
			c-0.7,0.44-13.95,5.91-23.31,17.07c-0.06,0.08-0.14,0.14-0.2,0.21c15.37-40.96,26.69-49.06,27.48-49.81
			C222.16,67.32,218.37,82.45,218.08,84.1z"/>
		<path class="st0" d="M109.41,47.17c-2.47,0.32-10.88,3.12-12.93,14.17c-0.09,0.47-0.02,1.57,0.15,2.22
			c0.37,1.43,1.33,2.1,2.61,2.64c0.86,0.37,1.9,0.32,2.82,0.2c1.06-0.13,2.15-0.43,3.09-0.93c7.69-4.09,10.09-11.01,10.25-11.67
			C117.27,46.17,109.62,47.14,109.41,47.17z"/>
	</g>
</g>
</svg>
