<svg xmlns="http://www.w3.org/2000/svg" width="385" height="25"><path d="M21.7 6l-2.8 13h-3.4l2.8-13h3.4zm14.1 8.4l1.8-4.9 1 4.9h-2.8zm3.8 4.6h3.1L40 6h-2.9c-.6 0-1.2.4-1.4 1l-5 12h3.5l.7-1.9h4.3l.4 1.9zm-8.8-4.3c0-3.4-4.7-3.6-4.7-5.1.1-.7.7-1.1 1.4-1.1 1.1-.1 2.3.1 3.3.6l.6-2.8c-1-.4-2.1-.6-3.1-.6-3.3 0-5.7 1.8-5.7 4.3 0 1.9 1.7 2.9 2.9 3.5 1.3.6 1.8 1 1.7 1.6 0 .9-1 1.3-2 1.3-1.2 0-2.4-.3-3.5-.8l-.6 2.8c1.2.5 2.5.7 3.7.7 3.7.1 6-1.7 6-4.4M16.9 6l-5.4 13H7.9L5.2 8.6c0-.5-.4-.9-.8-1.1-1-.5-2.1-.9-3.3-1.1l.1-.4h5.7c.8 0 1.4.6 1.5 1.3l1.4 7.5L13.4 6h3.5z" fill="#aab7c4"/><path d="M164.4 11.5v-1.3c0-.5-.5-1-1-1H162v2.3h-1.5V5h3.7c.9-.1 1.8.5 1.9 1.4v.5c0 .6-.3 1.2-.9 1.5.5.3.8.9.7 1.5v1.6h-1.5m-2.5-3.8h1.6c.3.1.7-.1.8-.4.1-.3-.1-.7-.4-.8h-2v1.2m21.3 3.8l-2.4-4.4v4.4h-3l-.5-1.4h-2.8l-.5 1.4h-3.2s-2-.3-2-3.1c0-3.4 1.7-3.5 2.4-3.5h1.9v1.5h-1.5c-.7.1-1.2.7-1.1 1.4v.5c0 2.2 2.6 1.5 2.7 1.5l1.9-4.9h2.1l2.3 5.9V5h2.1l2.4 4.3V5h1.5v6.6l-2.3-.1m-8-3h1.5l-.7-1.9-.8 1.9m-22.7 3V7l-1.9 4.5h-1.2L147.5 7v4.5h-3l-.5-1.4h-2.8l-.5 1.4H139l2.5-6.6h2.1l2.3 6V5h2.4l1.7 4.1 1.7-4.1h2.4v6.6l-1.6-.1m-10.7-3h1.5l-.7-1.9-.8 1.9m13.1 3V5h4.7v1.5h-3.2v1h3.1V9h-3.1v1.1h3.2v1.4h-4.7m11.8.1V5h1.5v6.6h-1.5M170 20v-1.3c0-.6-.5-1-1.1-1h-1.6V20h-1.6v-6.5h3.9c1-.2 1.9.5 2 1.5v.4c0 .6-.3 1.2-.9 1.5.5.3.8.9.8 1.5V20H170m-2.6-3.8h1.7c.3.1.7-.1.8-.4.1-.3-.1-.7-.4-.8-.1-.1-.3-.1-.4 0h-1.7v1.2m-8.1 3.8h-1.4l-1.7-1.9-1.7 1.9h-6v-6.5h5.9l1.8 2.1 1.9-2.1h5.1c1-.1 1.9.5 2 1.5v.4c0 1.9-.7 2.5-2.8 2.5h-1.6V20h-1.5m-2-3.2l2 2.3v-4.5l-2 2.2m-7.2 1.8h3.4l1.6-1.8-1.6-1.8h-3.4v1h3.3v1.5h-3.3v1.1m10.8-2.4h1.7c.3.1.7-.1.8-.4.1-.3-.1-.7-.4-.8-.1-.1-.3-.1-.4 0h-1.7v1.2M181 20h-2.9v-1.5h2.5s.9.1.9-.5-1.4-.5-1.4-.5c-1.1.2-2-.6-2.2-1.6v-.3c-.1-1 .7-1.9 1.7-2h3.4V15h-2.5s-.9-.2-.9.5c0 .5 1.2.5 1.2.5s2.5-.2 2.5 1.8c.1 1.1-.6 2.1-1.8 2.3h-.4l-.1-.1m-8.6 0v-6.5h5V15H174v1h3.3v1.5H174v1.1h3.4V20h-5m14.2 0h-2.9v-1.5h2.5s.9.1.9-.5-1.4-.5-1.4-.5c-1.1.2-2-.6-2.2-1.7v-.3c-.1-1 .7-1.9 1.7-2h3.4V15h-2.5s-.9-.2-.9.5c0 .5 1.2.5 1.2.5s2.5-.2 2.5 1.8c.1 1.1-.6 2.1-1.8 2.3h-.4c0-.1 0-.1-.1-.1m46.7 4h-4.1c-6.2-.1-11.2-5.2-11.2-11.4-.2-6.2 4.6-11.4 10.7-11.6h4.6c6.4-.1 11.6 5.1 11.7 11.5v.1c-.2 6.3-5.3 11.4-11.7 11.4zm-3.8-21c-5.2 0-9.5 4.3-9.5 9.5s4.3 9.5 9.5 9.5 9.5-4.3 9.5-9.5-4.3-9.5-9.5-9.5zm1.5 15.9V6.2c3.5.9 5.7 4.4 4.8 7.9-.6 2.4-2.4 4.2-4.8 4.8zm-3 0c-3.5-.9-5.6-4.5-4.7-8 .6-2.3 2.4-4.1 4.7-4.7v12.7zM277.5 8H275v8.9h2.5c1.1.1 2.2-.3 3.1-1 1-.9 1.6-2.1 1.6-3.4.1-2.4-1.8-4.4-4.2-4.5h-.5zm2 6.7c-.6.5-1.5.8-2.3.7h-.5V9.5h.5c.8-.1 1.7.2 2.3.7.6.6.9 1.4.9 2.2 0 .9-.3 1.7-.9 2.3zm3.4 2.2h1.7V8h-1.7v8.9zm5.8-5.5c-1-.4-1.3-.6-1.3-1.1.1-.6.6-1.1 1.2-1 .5 0 1 .3 1.4.7l.9-1.2c-.7-.6-1.6-1-2.5-1-1.4-.1-2.6 1-2.7 2.4v.1c0 1.2.5 1.9 2.1 2.4.4.1.8.3 1.2.5.3.2.5.5.5.9 0 .7-.6 1.3-1.2 1.3h-.1c-.8 0-1.5-.5-1.8-1.2l-1.1 1.1c.6 1.1 1.8 1.7 3 1.7 1.6.1 2.9-1.1 3-2.7V14c-.1-1.2-.6-1.8-2.6-2.6zm3.1 1.1c0 2.5 2 4.6 4.5 4.6.8 0 1.5-.2 2.2-.5v-2c-.5.6-1.2 1-2 1-1.6 0-2.9-1.2-2.9-2.8v-.2c-.1-1.6 1.2-3 2.8-3.1.8 0 1.6.4 2.1 1v-2c-.6-.4-1.4-.5-2.1-.5-2.6-.2-4.6 1.9-4.6 4.5zm20.3 1.5l-2.3-6H308l3.7 9.1h.9l3.7-9.1h-1.8l-2.4 6zm5 2.9h4.8v-1.5h-3.1V13h3v-1.5h-3v-2h3.1V8h-4.8v8.9zm11.5-6.3c0-1.7-1.1-2.6-3.1-2.6H323v8.9h1.7v-3.6h.2l2.3 3.6h2.1l-2.7-3.7c1.2-.2 2.1-1.3 2-2.6zm-3.4 1.5h-.5V9.4h.5c1.1 0 1.6.5 1.6 1.3 0 .9-.5 1.4-1.6 1.4z" fill="#aab7c4"/><path d="M303.7 7.9c-2.5 0-4.6 2-4.6 4.6 0 2.5 2 4.6 4.6 4.7s4.6-2 4.7-4.6c-.1-2.6-2.1-4.7-4.7-4.7z" opacity=".5" fill="#aab7c4"/><path d="M361.2 3c-1.8 0-3.2 1.4-3.2 3.2v8c.8.5 1.7.8 2.7.8.9 0 1.6-.7 1.7-1.6V9h2.7v4.2c0 1.6-.9 3-3.8 3-1.1 0-2.2-.2-3.2-.4V22h4.8c1.8 0 3.2-1.4 3.2-3.2V3h-4.9z" fill="#aab7c4"/><path d="M370.2 3c-1.8 0-3.2 1.4-3.2 3.2V10c.8-.8 2.2-1.3 4.5-1.2.9.1 1.7.2 2.5.4v1.5c-.7-.4-1.6-.7-2.4-.8-1.4-.1-2.6.9-2.8 2.2-.1 1.4.9 2.6 2.2 2.8h.5c.9-.1 1.7-.4 2.4-.8v1.5c-.8.2-1.7.4-2.5.4-2.3.1-3.7-.4-4.5-1.2v7h4.8c1.8 0 3.2-1.4 3.2-3.2V3h-4.7z" fill="#aab7c4" opacity=".75"/><path d="M379.2 3c-1.8 0-3.2 1.4-3.2 3.2V9h4.9c.9-.1 1.7.7 1.8 1.6v.1c0 .9-.6 1.6-1.5 1.7 1 0 1.8.8 1.9 1.8 0 1-.9 1.8-1.9 1.8H376v6h4.7c1.8 0 3.2-1.4 3.2-3.2V3h-4.7zM378 14.9h2.3c.5-.2.8-.7.7-1.3-.1-.3-.4-.6-.7-.7H378v2zm2.8-4c0-.4-.3-.8-.7-.9H378v1.8h2.1c.4-.1.7-.5.7-.9z" opacity=".5" fill="#aab7c4"/><g fill="#aab7c4"><path d="M83.2 10c-.6 0-1.4.2-1.8.9-.3-.5-.9-.9-1.7-.9-.5 0-1.1.1-1.5.7v-.6h-1.1V15h1.1v-2.7c0-.8.6-1.3 1.3-1.3.7 0 1.1.5 1.1 1.3V15h1.1v-2.7c0-.8.6-1.3 1.3-1.3.7 0 1.1.5 1.1 1.3V15h1.1v-3c0-1.2-.8-2-2-2zm6.9.8c-.3-.4-.8-.7-1.5-.7-1.4 0-2.4 1.1-2.4 2.6s1.1 2.6 2.4 2.6c.7 0 1.2-.3 1.5-.7v.4h1.1v-4.9h-1.1v.7zm-1.4 3.4c-.9 0-1.5-.7-1.5-1.6 0-.9.6-1.6 1.5-1.6s1.5.7 1.5 1.6-.6 1.6-1.5 1.6zm6.2-2.1l-.5-.1c-.4-.1-.8-.2-.8-.5s.3-.6.9-.6c.6 0 1.2.2 1.5.4l.5-.8c-.5-.3-1.2-.5-2-.5-1.2 0-2 .6-2 1.6 0 .8.6 1.3 1.6 1.4l.5.1c.6.1.8.3.8.5 0 .4-.4.6-1.1.6-.8 0-1.3-.2-1.6-.5l-.5.8c.7.5 1.6.6 2.1.6 1.4 0 2.2-.7 2.2-1.6.1-.8-.5-1.2-1.6-1.4zm5.4 2.1c-.4 0-.8-.3-.8-.9v-2.1h1.9v-1h-1.9V8.7h-1.1v1.5h-1v1h1v2.1c0 1.3.6 1.9 1.7 1.9.6 0 1.1-.2 1.5-.5l-.4-.9c-.3.2-.6.4-.9.4zm4.4-4.2c-1.4 0-2.4 1-2.4 2.6s1 2.6 2.5 2.6c.7 0 1.4-.2 2-.7l-.5-.8c-.4.3-.9.5-1.4.5-.7 0-1.3-.4-1.4-1.2h3.6v-.4c-.1-1.5-1-2.6-2.4-2.6zm-1.3 2.2c.1-.7.5-1.2 1.3-1.2.7 0 1.1.4 1.2 1.2h-2.5zm5.9-1.5v-.6h-1.1V15h1.1v-2.7c0-.8.5-1.3 1.2-1.3.3 0 .6.1.8.2l.3-1.1c-.2-.1-.5-.1-.8-.1-.7 0-1.2.2-1.5.7zm5 .3c.5 0 .8.2 1.2.5l.7-.7c-.4-.5-1.1-.8-1.8-.8-1.5 0-2.6 1.1-2.6 2.6s1 2.6 2.6 2.6c.7 0 1.4-.3 1.8-.8l-.7-.7c-.3.3-.7.5-1.2.5-.8 0-1.4-.6-1.4-1.6s.6-1.6 1.4-1.6zm6.4-.2c-.3-.4-.8-.7-1.5-.7-1.4 0-2.4 1.1-2.4 2.6s1.1 2.6 2.4 2.6c.7 0 1.2-.3 1.5-.7v.4h1.1v-4.9h-1.1v.7zm-1.4 3.4c-.9 0-1.5-.7-1.5-1.6 0-.9.6-1.6 1.5-1.6s1.5.7 1.5 1.6-.6 1.6-1.5 1.6zm5.1-3.5v-.6h-1.1V15h1.1v-2.7c0-.8.5-1.3 1.2-1.3.3 0 .6.1.8.2l.3-1.1c-.2-.1-.5-.1-.8-.1-.7 0-1.2.2-1.5.7zm6.4-3v3c-.3-.4-.8-.7-1.5-.7-1.4 0-2.4 1.1-2.4 2.6s1.1 2.6 2.4 2.6c.7 0 1.2-.3 1.5-.7v.5h1.1V7.7h-1.1zm-1.4 6.5c-.9 0-1.5-.7-1.5-1.6 0-.9.6-1.6 1.5-1.6s1.5.7 1.5 1.6-.6 1.6-1.5 1.6zm-72.2-1.6c0-2.4 1.1-4.5 2.8-5.9-1.3-1-2.9-1.6-4.6-1.6C51.3 5 48 8.4 48 12.6s3.3 7.6 7.4 7.6c1.7 0 3.3-.6 4.6-1.6-1.7-1.5-2.8-3.6-2.8-6z"/><path d="M64.6 5c-1.7 0-3.3.6-4.6 1.6 1.7 1.4 2.8 3.5 2.8 5.9 0 2.4-1.1 4.5-2.8 5.9 1.3 1 2.9 1.6 4.6 1.6 4.1 0 7.4-3.4 7.4-7.5S68.7 5 64.6 5z" opacity=".5"/><path d="M62.8 12.6c0-2.4-1.1-4.5-2.8-5.9-1.7 1.4-3.8 3.5-3.8 5.9 0 2.4 2 4.5 3.8 5.9 1.7-1.4 2.8-3.5 2.8-5.9z" opacity=".75"/></g></svg>