<?xml version="1.0" encoding="utf-8"?>
<!-- Generator: Adobe Illustrator 15.0.0, SVG Export Plug-In . SVG Version: 6.00 Build 0)  -->
<!DOCTYPE svg PUBLIC "-//W3C//DTD SVG 1.1//EN" "http://www.w3.org/Graphics/SVG/1.1/DTD/svg11.dtd">
<svg version="1.1" id="Layer_1" xmlns="http://www.w3.org/2000/svg" xmlns:xlink="http://www.w3.org/1999/xlink" x="0px" y="0px"
	 width="240px" height="80px" viewBox="0 0 240 80" enable-background="new 0 0 240 80" xml:space="preserve">
<g>
	<g>
		<path fill="#FFFFFF" d="M68.732,25.04h8.562c2.325,0,4.418,0.295,6.279,0.884c1.861,0.591,3.457,1.498,4.792,2.722
			c1.335,1.226,2.355,2.784,3.072,4.677c0.713,1.892,1.069,4.139,1.069,6.745c0,2.604-0.356,4.867-1.069,6.791
			c-0.715,1.925-1.722,3.512-3.023,4.771c-1.303,1.255-2.861,2.193-4.676,2.814c-1.815,0.62-3.837,0.93-6.07,0.93h-8.935
			L68.732,25.04L68.732,25.04z M76.874,49.837c1.303,0,2.48-0.171,3.536-0.513c1.054-0.342,1.955-0.895,2.698-1.65
			c0.743-0.76,1.325-1.761,1.744-3.002c0.418-1.24,0.629-2.777,0.629-4.604c0-1.8-0.21-3.312-0.629-4.537
			c-0.42-1.227-1-2.201-1.744-2.932c-0.746-0.728-1.646-1.249-2.698-1.558c-1.055-0.311-2.233-0.466-3.536-0.466h-1.301v19.262
			H76.874z"/>
		<path fill="#FFFFFF" d="M95.389,32.297h5.583l0.464,4.05h0.187c0.837-1.582,1.843-2.746,3.023-3.49
			c1.177-0.745,2.357-1.117,3.536-1.117c0.651,0,1.188,0.04,1.605,0.117c0.417,0.077,0.799,0.195,1.142,0.35l-1.118,5.909
			c-0.434-0.124-0.837-0.215-1.21-0.279c-0.372-0.062-0.806-0.094-1.301-0.094c-0.87,0-1.775,0.311-2.722,0.932
			c-0.947,0.622-1.729,1.722-2.349,3.304v13.396H95.39L95.389,32.297L95.389,32.297z"/>
		<path fill="#FFFFFF" d="M109.764,43.835c0-1.923,0.312-3.636,0.934-5.14c0.62-1.505,1.449-2.769,2.49-3.791
			c1.038-1.023,2.24-1.809,3.604-2.353c1.364-0.542,2.774-0.812,4.23-0.812c1.459,0,2.863,0.271,4.211,0.812
			c1.352,0.542,2.547,1.328,3.584,2.353c1.039,1.022,1.867,2.287,2.488,3.791c0.618,1.504,0.932,3.219,0.932,5.14
			c0,1.924-0.312,3.64-0.932,5.14c-0.621,1.508-1.449,2.771-2.488,3.791c-1.037,1.025-2.232,1.812-3.584,2.353
			c-1.348,0.54-2.754,0.812-4.211,0.812c-1.456,0-2.866-0.271-4.23-0.812c-1.365-0.541-2.567-1.326-3.604-2.353
			c-1.041-1.021-1.87-2.283-2.49-3.791C110.075,47.475,109.764,45.759,109.764,43.835z M116.79,43.835
			c0,2.019,0.348,3.615,1.048,4.792c0.698,1.18,1.758,1.77,3.184,1.77c1.398,0,2.451-0.593,3.164-1.77
			c0.713-1.181,1.072-2.773,1.072-4.792c0-2.016-0.359-3.612-1.072-4.792c-0.713-1.178-1.766-1.768-3.164-1.768
			c-1.426,0-2.484,0.59-3.184,1.768C117.138,40.223,116.79,41.819,116.79,43.835z"/>
		<path fill="#FFFFFF" d="M141.443,57.188v6.746h-6.836V32.297h5.58l0.466,2.281h0.184c0.899-0.805,1.915-1.48,3.05-2.024
			c1.131-0.542,2.301-0.812,3.512-0.812c1.397,0,2.652,0.279,3.77,0.838c1.117,0.559,2.062,1.351,2.837,2.373
			c0.774,1.023,1.374,2.258,1.792,3.701c0.418,1.438,0.627,3.047,0.627,4.812c0,1.985-0.271,3.745-0.814,5.282
			c-0.54,1.535-1.271,2.835-2.188,3.907c-0.915,1.067-1.954,1.885-3.117,2.439c-1.166,0.56-2.365,0.837-3.605,0.837
			c-0.993,0-1.953-0.206-2.885-0.627c-0.932-0.419-1.801-1.016-2.604-1.791L141.443,57.188z M141.443,48.86
			c0.623,0.559,1.242,0.944,1.861,1.161c0.617,0.219,1.226,0.325,1.812,0.325c1.182,0,2.188-0.536,3.025-1.604
			c0.836-1.07,1.254-2.802,1.254-5.189c0-4.156-1.33-6.231-4.002-6.231c-1.334,0-2.648,0.697-3.955,2.093v9.445H141.443z"/>
		<path fill="#FFFFFF" d="M171.73,28.063c-0.868-0.31-1.658-0.466-2.371-0.466c-0.836,0-1.488,0.256-1.953,0.77
			c-0.467,0.512-0.698,1.354-0.698,2.536v1.396h4.14v5.352h-4.14v17.724h-6.839V37.648h-3.07v-5.071l3.07-0.231V31.09
			c0-1.209,0.146-2.356,0.441-3.443c0.295-1.085,0.781-2.032,1.465-2.837s1.564-1.441,2.65-1.908
			c1.086-0.465,2.402-0.696,3.955-0.696c0.963,0,1.838,0.092,2.627,0.278c0.793,0.186,1.451,0.372,1.979,0.557L171.73,28.063z"/>
		<path fill="#FFFFFF" d="M176.502,28.9c-1.148,0-2.098-0.334-2.839-1.002c-0.746-0.666-1.114-1.526-1.114-2.581
			c0-1.053,0.369-1.908,1.114-2.56c0.745-0.651,1.69-0.976,2.839-0.976c1.176,0,2.129,0.324,2.859,0.976
			c0.728,0.651,1.093,1.507,1.093,2.56c0,1.054-0.365,1.915-1.093,2.581C178.631,28.568,177.678,28.9,176.502,28.9z M173.107,32.297
			h6.836v23.075h-6.836V32.297z"/>
		<path fill="#FFFFFF" d="M183.619,22.76h6.836v25.729c0,0.714,0.132,1.21,0.396,1.487c0.262,0.279,0.533,0.42,0.812,0.42
			c0.154,0,0.286,0,0.396,0c0.105,0,0.254-0.031,0.44-0.097l0.835,5.07c-0.372,0.155-0.843,0.286-1.417,0.396
			c-0.573,0.107-1.251,0.163-2.024,0.163c-1.181,0-2.173-0.186-2.978-0.559c-0.808-0.371-1.451-0.894-1.933-1.558
			c-0.479-0.666-0.828-1.474-1.045-2.418c-0.219-0.945-0.323-2.01-0.323-3.188V22.76H183.619z"/>
		<path fill="#FFFFFF" d="M193.248,43.835c0-1.858,0.312-3.542,0.93-5.047c0.621-1.505,1.437-2.777,2.443-3.815
			c1.008-1.039,2.162-1.837,3.467-2.396c1.303-0.559,2.652-0.838,4.049-0.838c1.645,0,3.078,0.279,4.303,0.838
			c1.227,0.558,2.246,1.335,3.07,2.327c0.82,0.993,1.435,2.162,1.836,3.513c0.402,1.349,0.605,2.813,0.605,4.396
			c0,0.619-0.03,1.186-0.092,1.698c-0.062,0.511-0.125,0.905-0.188,1.186h-13.815c0.312,1.769,1,3.05,2.07,3.837
			c1.069,0.793,2.381,1.188,3.932,1.188c1.646,0,3.304-0.512,4.978-1.533l2.281,4.137c-1.181,0.811-2.49,1.445-3.929,1.908
			c-1.446,0.467-2.864,0.696-4.263,0.696c-1.645,0-3.179-0.271-4.604-0.812c-1.427-0.541-2.667-1.334-3.723-2.374
			c-1.057-1.038-1.877-2.304-2.467-3.79S193.248,45.759,193.248,43.835z M208.136,41.463c0-1.334-0.298-2.42-0.886-3.257
			c-0.589-0.837-1.584-1.257-2.977-1.257c-1.086,0-2.041,0.365-2.861,1.095c-0.824,0.728-1.356,1.868-1.604,3.419H208.136z"/>
	</g>
	<g transform="translate(0, 0)">
		<line fill="none" stroke="#FFFFFF" stroke-width="4" stroke-miterlimit="10" x1="41.94" y1="48.264" x2="41.94" y2="24.917"/>
		<polyline fill="none" stroke="#FFFFFF" stroke-width="4" stroke-linecap="square" stroke-miterlimit="10" points="49.067,41.136 
			41.94,48.264 34.811,41.136 		"/>
		<polyline fill="none" stroke="#FFFFFF" stroke-width="4" stroke-linecap="square" stroke-miterlimit="10" points="50.088,27.007 
			57.214,27.007 57.214,54.499 26.666,54.499 26.666,27.007 33.794,27.007 		"/>
	</g>
</g>
</svg>
