<?xml version="1.0" encoding="utf-8"?>
<!-- Generator: Adobe Illustrator 15.0.0, SVG Export Plug-In . SVG Version: 6.00 Build 0)  -->
<!DOCTYPE svg PUBLIC "-//W3C//DTD SVG 1.1//EN" "http://www.w3.org/Graphics/SVG/1.1/DTD/svg11.dtd">
<svg version="1.1" id="Layer_1" xmlns="http://www.w3.org/2000/svg" xmlns:xlink="http://www.w3.org/1999/xlink" x="0px" y="0px"
	 width="240px" height="80px" viewBox="0 0 240 80" enable-background="new 0 0 240 80" xml:space="preserve">
<g>
	<path fill="#333333" d="M53.674,22.187H40.292v9.229h12.91v5.447h-12.91v18.281h-5.795V16.739h19.177V22.187z"/>
	<path fill="#333333" d="M58.821,30.917h5.596v2.162c1.028-1.077,1.939-1.814,2.735-2.212c0.812-0.417,1.774-0.623,2.885-0.623
		c1.477,0,3.019,0.481,4.627,1.443l-2.562,5.124c-1.062-0.765-2.098-1.144-3.108-1.144c-3.054,0-4.578,2.305-4.578,6.914v12.56
		H58.82L58.821,30.917L58.821,30.917z"/>
	<path fill="#333333" d="M76.281,42.855c0-3.5,1.254-6.476,3.756-8.931c2.503-2.456,5.555-3.683,9.153-3.683
		c3.616,0,6.682,1.236,9.203,3.707c2.488,2.471,3.729,5.506,3.729,9.1c0,3.637-1.251,6.678-3.753,9.129
		c-2.52,2.438-5.614,3.655-9.278,3.655c-3.633,0-6.674-1.241-9.127-3.728C77.506,49.653,76.281,46.569,76.281,42.855z
		 M82.001,42.955c0,2.42,0.645,4.336,1.942,5.747c1.328,1.425,3.075,2.138,5.248,2.138c2.191,0,3.938-0.703,5.25-2.111
		c1.307-1.41,1.963-3.291,1.963-5.646s-0.656-4.239-1.963-5.647c-1.329-1.425-3.077-2.14-5.25-2.14c-2.138,0-3.87,0.715-5.197,2.14
		C82.664,38.859,82.001,40.699,82.001,42.955z"/>
	<path fill="#333333" d="M106.901,42.855c0-3.5,1.25-6.476,3.754-8.931c2.504-2.456,5.555-3.683,9.157-3.683
		c3.612,0,6.681,1.236,9.202,3.707c2.485,2.471,3.729,5.506,3.729,9.1c0,3.637-1.254,6.678-3.754,9.129
		c-2.522,2.438-5.614,3.655-9.279,3.655c-3.631,0-6.674-1.241-9.127-3.728C108.127,49.653,106.901,46.569,106.901,42.855z
		 M112.62,42.955c0,2.42,0.647,4.336,1.944,5.747c1.323,1.425,3.072,2.138,5.248,2.138c2.188,0,3.938-0.703,5.244-2.111
		c1.312-1.41,1.971-3.291,1.971-5.646s-0.659-4.239-1.971-5.647c-1.325-1.425-3.075-2.14-5.244-2.14
		c-2.142,0-3.873,0.715-5.199,2.14C113.283,38.859,112.62,40.699,112.62,42.955z"/>
	<path fill="#333333" d="M162.092,54.569c0,1.145-0.036,2.15-0.109,3.022c-0.074,0.87-0.179,1.637-0.312,2.301
		c-0.396,1.822-1.176,3.392-2.338,4.701c-2.189,2.52-5.197,3.781-9.025,3.781c-3.233,0-5.894-0.874-7.985-2.616
		c-2.155-1.789-3.398-4.265-3.729-7.434h5.623c0.212,1.192,0.569,2.112,1.064,2.762c1.162,1.511,2.854,2.263,5.074,2.263
		c4.097,0,6.147-2.51,6.147-7.535v-3.381c-2.223,2.269-4.785,3.402-7.688,3.402c-3.297,0-6.002-1.189-8.105-3.578
		c-2.123-2.423-3.186-5.447-3.186-9.079c0-3.532,0.989-6.533,2.961-9.004c2.121-2.62,4.924-3.929,8.41-3.929
		c3.049,0,5.582,1.135,7.608,3.406v-2.735h5.594v23.652H162.092z M156.718,43.08c0-2.355-0.628-4.237-1.891-5.646
		c-1.275-1.441-2.911-2.165-4.9-2.165c-2.12,0-3.797,0.788-5.021,2.363c-1.113,1.409-1.668,3.234-1.668,5.472
		c0,2.205,0.555,4.013,1.668,5.422c1.211,1.539,2.888,2.314,5.021,2.314c2.143,0,3.834-0.779,5.073-2.34
		C156.146,47.093,156.718,45.285,156.718,43.08z"/>
	<path fill="#333333" d="M174.75,13.132v42.009h-5.595V13.132H174.75z"/>
	<path fill="#333333" d="M203.9,44.348h-17.36c0.147,1.987,0.796,3.576,1.94,4.75c1.144,1.164,2.61,1.742,4.398,1.742
		c1.396,0,2.547-0.33,3.461-0.996c0.895-0.658,1.913-1.89,3.059-3.678l4.725,2.635c-0.729,1.243-1.499,2.312-2.312,3.197
		c-0.813,0.886-1.684,1.616-2.614,2.188c-0.925,0.572-1.931,0.993-3.009,1.256c-1.074,0.265-2.248,0.396-3.502,0.396
		c-3.619,0-6.522-1.158-8.711-3.479c-2.186-2.338-3.279-5.439-3.279-9.306c0-3.828,1.058-6.928,3.183-9.301
		c2.137-2.337,4.976-3.506,8.506-3.506c3.564,0,6.386,1.135,8.457,3.406c2.056,2.256,3.084,5.382,3.084,9.377L203.9,44.348z
		 M198.155,39.771c-0.777-2.985-2.66-4.478-5.646-4.478c-0.68,0-1.316,0.104-1.916,0.312c-0.598,0.208-1.142,0.506-1.631,0.896
		c-0.488,0.391-0.908,0.857-1.253,1.404c-0.351,0.546-0.618,1.168-0.798,1.865L198.155,39.771L198.155,39.771z"/>
</g>
</svg>
