<?xml version="1.0" encoding="utf-8"?>
<!-- Generator: Adobe Illustrator 15.0.0, SVG Export Plug-In . SVG Version: 6.00 Build 0)  -->
<!DOCTYPE svg PUBLIC "-//W3C//DTD SVG 1.1//EN" "http://www.w3.org/Graphics/SVG/1.1/DTD/svg11.dtd">
<svg version="1.1" id="Layer_1" xmlns="http://www.w3.org/2000/svg" xmlns:xlink="http://www.w3.org/1999/xlink" x="0px" y="0px"
	 width="240px" height="80px" viewBox="0 0 240 80" enable-background="new 0 0 240 80" xml:space="preserve">
<g>
	<path fill="#333333" d="M33.87,38.386c-1.59,0-2.863,1.274-2.863,2.866c0,1.59,1.273,2.861,2.863,2.861
		c1.592,0,2.864-1.271,2.864-2.861C36.736,39.66,35.463,38.386,33.87,38.386z M43.737,37.909c-1.909,0-3.342,1.433-3.342,3.343
		s1.433,3.342,3.342,3.342c1.909,0,3.341-1.432,3.341-3.342S45.646,37.909,43.737,37.909z M45.188,21.386
		c-1.667-0.532-3.467,0.399-3.999,2.066s0.399,3.467,2.064,3.999c1.668,0.531,3.469-0.399,3.999-2.066
		C47.786,23.718,46.856,21.918,45.188,21.386z M73.333,36.477c-2.547,0-4.774,2.069-4.774,4.775c0,2.545,2.069,4.771,4.774,4.771
		s4.772-2.065,4.772-4.771C77.948,38.546,75.879,36.477,73.333,36.477z M63.309,36.954c-2.387,0-4.297,1.911-4.297,4.298
		c0,2.386,1.909,4.295,4.297,4.295s4.295-1.909,4.295-4.295C67.604,38.863,65.695,36.954,63.309,36.954z M64.126,26.419
		c-2.123-0.676-4.521,0.562-5.198,2.686c-0.676,2.122,0.563,4.521,2.687,5.198c2.124,0.676,4.521-0.562,5.198-2.687
		C67.489,29.495,66.249,27.097,64.126,26.419z M53.602,37.433c-2.069,0-3.818,1.749-3.818,3.819c0,2.064,1.752,3.818,3.818,3.818
		c2.067,0,3.818-1.754,3.818-3.818C57.421,39.182,55.67,37.433,53.602,37.433z M54.731,23.926c-1.97-0.627-3.969,0.405-4.596,2.376
		c-0.627,1.971,0.403,3.968,2.375,4.598c1.97,0.628,3.97-0.404,4.599-2.374C57.738,26.553,56.703,24.555,54.731,23.926z
		 M47.254,56.673c-0.532-1.666-2.332-2.597-3.999-2.062c-1.667,0.528-2.597,2.331-2.064,3.997c0.53,1.668,2.33,2.599,3.999,2.066
		C46.856,60.14,47.786,58.34,47.254,56.673z M66.812,50.441c-0.676-2.123-3.074-3.363-5.198-2.687
		c-2.122,0.679-3.36,3.074-2.687,5.198c0.676,2.124,3.076,3.363,5.198,2.687C66.25,54.965,67.489,52.562,66.812,50.441z
		 M57.11,53.532c-0.629-1.97-2.628-3-4.6-2.373c-1.972,0.627-3.003,2.624-2.375,4.597c0.627,1.971,2.626,3.003,4.597,2.377
		C56.703,57.504,57.738,55.505,57.11,53.532z"/>
	<g>
		<path fill="#333333" d="M96.926,36.303c-1.182-1.637-2.5-2.548-3.501-2.548c-1.047,0-2.047,0.454-2.73,1.182
			c-0.455,0.5-0.818,1.229-0.818,2.185c-0.046,1.637,1.41,2.139,3.183,2.184c3.595,0.092,7.051,2.229,7.051,6.599
			c0.046,4.592-3.641,6.731-7.278,6.731c-2.457,0-5.459-1.593-7.142-4.55l3.139-1.686c1.045,1.73,2.639,2.551,4.048,2.551
			c1.82,0,3.549-1.047,3.549-3.048c0-1.911-1.637-2.821-3.412-2.865c-3.775-0.093-6.823-1.685-6.823-5.914
			c-0.046-4.459,3.549-6.96,7.188-6.96c2.318,0,4.776,1.274,6.642,4.094L96.926,36.303z"/>
		<path fill="#333333" d="M114.621,32.572l0.728-2.274h2.774v31.023h-3.684V50.494c-0.817,1.501-2.274,1.773-3.502,1.867
			c-4.049,0.316-7.324-3.322-7.324-7.008v-8.688c0-3.775,2.275-6.642,7.232-6.642C112.211,30.024,113.803,30.707,114.621,32.572z
			 M107.298,45.354c0,1.867,1.683,3.322,3.638,3.322c2.275,0,3.456-1.32,3.502-3.138v-8.645c0-1.593-1.546-3.231-3.502-3.231
			c-2.001,0-3.638,1.183-3.638,3.001V45.354z"/>
		<path fill="#333333" d="M122.033,45.354V30.434h3.687v14.919c0,1.909,1.546,3.502,3.411,3.502c1.911,0,3.459-1.593,3.459-3.502
			V30.434h3.639v14.919c0,3.866-2.957,7.188-7.098,7.188C125.129,52.542,122.033,49.221,122.033,45.354z"/>
		<path fill="#333333" d="M144.916,25.656c0,1.321-1.139,2.274-2.365,2.274c-1.184,0-2.229-0.955-2.229-2.274
			c0-1.41,1.046-2.319,2.229-2.319C143.777,23.337,144.916,24.247,144.916,25.656z M144.415,52.312h-3.64V30.434h3.64V52.312z"/>
		<path fill="#333333" d="M148.555,45.945v-8.688c0-3.684,3.275-7.324,7.322-7.005c1.229,0.091,2.684,0.636,3.504,2.138v-11.1h3.684
			v31.024h-2.773l-0.729-2.272c-0.817,1.864-2.412,2.546-3.774,2.546C150.828,52.587,148.555,49.723,148.555,45.945z M152.24,45.945
			c0,1.818,1.637,3.003,3.641,3.003c1.955,0,3.5-1.638,3.5-3.231v-8.643c-0.043-1.82-1.229-3.14-3.5-3.14
			c-1.956,0-3.641,1.456-3.641,3.321V45.945z"/>
		<path fill="#333333" d="M170.889,50.04l-0.729,2.272h-2.774V21.291h3.686v11.1c0.817-1.502,2.274-2.047,3.501-2.138
			c4.05-0.319,7.324,3.321,7.324,7.005v8.688c0,3.776-2.274,6.642-7.23,6.642C173.3,52.587,171.707,51.904,170.889,50.04z
			 M178.211,37.257c0-1.865-1.683-3.321-3.64-3.321c-2.272,0-3.456,1.32-3.501,3.139v8.645c0,1.591,1.547,3.23,3.501,3.23
			c2.001,0,3.64-1.185,3.64-3.004V37.257z"/>
		<path fill="#333333" d="M190.722,25.656c0,1.321-1.14,2.274-2.364,2.274c-1.186,0-2.23-0.955-2.23-2.274
			c0-1.41,1.046-2.319,2.23-2.319C189.586,23.337,190.722,24.247,190.722,25.656z M190.221,52.312h-3.639V30.434h3.639V52.312z"/>
		<path fill="#333333" d="M202.547,30.342v3.686H198v10.918c0,2.094,2.273,3.729,4.957,3.729v3.641
			c-4.594,0-8.598-3.047-8.598-7.368V21.471H198v8.872L202.547,30.342L202.547,30.342z"/>
	</g>
</g>
</svg>
